<svg width="35" height="19" viewBox="0 0 35 19" fill="none" xmlns="http://www.w3.org/2000/svg">
<path d="M1.61276 18.192C1.11676 18.192 0.732758 18.056 0.460758 17.784C0.204758 17.496 0.0767581 17.104 0.0767581 16.608L0.0767578 2.472C0.0767578 1.96 0.204758 1.568 0.460758 1.296C0.732758 1.024 1.11676 0.887998 1.61276 0.887998C2.10876 0.887998 2.48476 1.024 2.74076 1.296C3.01276 1.568 3.14876 1.96 3.14876 2.472L3.14876 8.136L11.8608 8.136L11.8608 2.472C11.8608 1.96 11.9888 1.568 12.2448 1.296C12.5168 1.024 12.9008 0.887998 13.3968 0.887998C13.8928 0.887998 14.2688 1.024 14.5248 1.296C14.7968 1.568 14.9328 1.96 14.9328 2.472L14.9328 16.608C14.9328 17.104 14.7968 17.496 14.5248 17.784C14.2688 18.056 13.8928 18.192 13.3968 18.192C12.9008 18.192 12.5168 18.056 12.2448 17.784C11.9888 17.496 11.8608 17.104 11.8608 16.608L11.8608 10.704L3.14876 10.704L3.14876 16.608C3.14876 17.104 3.02076 17.496 2.76476 17.784C2.50876 18.056 2.12476 18.192 1.61276 18.192ZM19.8393 18.168C19.3593 18.168 18.9913 18.024 18.7353 17.736C18.4793 17.448 18.3513 17.048 18.3513 16.536L18.3513 7.728C18.3513 7.2 18.4793 6.8 18.7353 6.528C18.9913 6.24 19.3593 6.096 19.8393 6.096C20.3193 6.096 20.6873 6.24 20.9433 6.528C21.2153 6.8 21.3513 7.2 21.3513 7.728L21.3513 16.536C21.3513 17.048 21.2233 17.448 20.9673 17.736C20.7113 18.024 20.3353 18.168 19.8393 18.168ZM19.8393 3.864C19.2793 3.864 18.8393 3.728 18.5193 3.456C18.2153 3.168 18.0633 2.776 18.0633 2.28C18.0633 1.768 18.2153 1.376 18.5193 1.104C18.8393 0.831998 19.2793 0.695999 19.8393 0.695999C20.4153 0.695999 20.8553 0.831998 21.1593 1.104C21.4633 1.376 21.6153 1.768 21.6153 2.28C21.6153 2.776 21.4633 3.168 21.1593 3.456C20.8553 3.728 20.4153 3.864 19.8393 3.864ZM32.4241 13.128C32.1201 13.128 31.8801 13.032 31.7041 12.84C31.5441 12.648 31.4481 12.376 31.4161 12.024L30.6961 2.856C30.6481 2.264 30.7761 1.792 31.0801 1.44C31.3841 1.072 31.8321 0.887997 32.4241 0.887997C33.0001 0.887997 33.4321 1.072 33.7201 1.44C34.0241 1.792 34.1521 2.264 34.1041 2.856L33.3841 12.024C33.3681 12.376 33.2721 12.648 33.0961 12.84C32.9361 13.032 32.7121 13.128 32.4241 13.128ZM32.4241 18.12C31.8801 18.12 31.4401 17.952 31.1041 17.616C30.7841 17.28 30.6241 16.848 30.6241 16.32C30.6241 15.808 30.7841 15.392 31.1041 15.072C31.4401 14.736 31.8801 14.568 32.4241 14.568C32.9841 14.568 33.4161 14.736 33.7201 15.072C34.0401 15.392 34.2001 15.808 34.2001 16.32C34.2001 16.848 34.0401 17.28 33.7201 17.616C33.4161 17.952 32.9841 18.12 32.4241 18.12Z" fill="#FEFEFE"/>
</svg>
